<?xml version="1.0" encoding="UTF-8"?>
<svg width="19px" height="19px" viewBox="0 0 19 19" version="1.1" xmlns="http://www.w3.org/2000/svg" xmlns:xlink="http://www.w3.org/1999/xlink">
    <!-- Generator: Sketch 55 (78076) - https://sketchapp.com -->
    <title>Favicon</title>
    <desc>Created with Sketch.</desc>
    <g id="Page-1" stroke="none" stroke-width="1" fill="none" fill-rule="evenodd">
        <g id="Favicon">
            <rect id="Rectangle" fill="#111111" x="0" y="0" width="19" height="19"></rect>
            <path d="M5.14963942,7.30843839 C5.7890657,7.30843839 6.45131869,7.40641178 7.13641827,7.60236151 C7.25060153,8.12105195 7.31340139,8.76652372 7.32481971,9.53879616 C7.32481971,9.6310078 7.2506017,9.67711293 7.10216346,9.67711293 C6.85096028,9.67711293 6.71394242,9.6310078 6.69110577,9.53879616 C6.61117748,9.13537026 6.4427597,8.79246339 6.18584736,8.51006525 C5.92893501,8.22766712 5.58353582,8.08647017 5.14963942,8.08647017 C4.81850796,8.08647017 4.55874493,8.161391 4.37034255,8.31123491 C4.18194016,8.46107882 4.08774038,8.67431502 4.08774038,8.95094993 C4.08774038,9.11232029 4.11914031,9.25928038 4.18194111,9.39183461 C4.2447419,9.52438883 4.3475053,9.64829636 4.49023438,9.7635609 C4.63296345,9.87882545 4.75856316,9.9710357 4.86703726,10.0401944 C4.97551136,10.1093532 5.13822007,10.2015634 5.35516827,10.3168279 C5.43509655,10.3629338 5.49218733,10.3917495 5.52644231,10.4032759 C5.54927896,10.4148024 5.63491512,10.4609075 5.78335337,10.5415927 C5.93179161,10.6222779 6.02599139,10.6741461 6.06595553,10.697199 C6.10591967,10.720252 6.19726491,10.7750018 6.33999399,10.8614502 C6.48272307,10.9478986 6.58263193,11.0141747 6.63972356,11.0602805 C6.69681519,11.1063864 6.78530589,11.175544 6.90519832,11.2677557 C7.02509074,11.3599673 7.11072691,11.4406513 7.16210937,11.50981 C7.21349184,11.5789687 7.28200077,11.6682974 7.36763822,11.7777987 C7.45327567,11.8873001 7.51322098,11.9910366 7.54747596,12.0890115 C7.58173094,12.1869863 7.61313087,12.296486 7.64167668,12.4175138 C7.6702225,12.5385415 7.68449519,12.6624491 7.68449519,12.7892401 C7.68449519,13.5154067 7.40760493,14.0888392 6.85381611,14.5095548 C6.30002728,14.9302704 5.62921067,15.140625 4.84134615,15.140625 C4.13340992,15.140625 3.39693892,14.9792571 2.63191106,14.6565163 C2.57481943,14.4605666 2.51772865,14.1407123 2.46063702,13.6969438 C2.40354539,13.2531753 2.375,12.9217947 2.375,12.7027921 C2.44350996,12.6451598 2.52343704,12.6163441 2.61478365,12.6163441 C2.87740516,12.6163441 3.01442302,12.6624492 3.02584135,12.7546609 C3.11718796,13.238772 3.34269652,13.627784 3.7023738,13.9217085 C4.06205108,14.2156331 4.45312289,14.3625932 4.87560096,14.3625932 C5.1953141,14.3625932 5.45793166,14.2819092 5.66346154,14.1205389 C5.86899141,13.9591685 5.97175481,13.7228798 5.97175481,13.4116655 C5.97175481,13.2964009 5.95748211,13.1897828 5.9289363,13.091808 C5.90039048,12.9938331 5.84615425,12.8958597 5.76622596,12.7978849 C5.68629768,12.69991 5.62064329,12.619226 5.56926082,12.5558305 C5.51787835,12.492435 5.41511495,12.4146326 5.26096755,12.322421 C5.10682014,12.2302094 4.99263859,12.1639332 4.91841947,12.1235906 C4.84420035,12.0832481 4.70147341,12.0083272 4.49023438,11.8988259 C4.27899534,11.7893246 4.13341386,11.7115222 4.05348558,11.6654164 C3.52824257,11.3887815 3.12289806,11.0804534 2.8374399,10.740423 C2.55198175,10.4003926 2.40925481,9.98832806 2.40925481,9.50421697 C2.40925481,8.80110326 2.68329053,8.25936802 3.23137019,7.87899503 C3.77944986,7.49862203 4.41886654,7.30843839 5.14963942,7.30843839 Z M12.9939904,7.32572798 C13.7019266,7.32572798 14.3384888,7.50726692 14.9036959,7.87035023 C15.4689031,8.23343354 15.8970839,8.69448481 16.1882512,9.25351784 C16.4794185,9.81255088 16.625,10.3917465 16.625,10.9911222 C16.625,12.1207147 16.2282191,13.0860408 15.4346454,13.8871294 C14.6410718,14.6882179 13.7247648,15.0887562 12.6856971,15.0887562 C12.2061274,15.0887562 11.7893648,15.0455327 11.4353966,14.9590843 C11.0814285,14.8726358 10.8131019,14.8294123 10.6304087,14.8294123 C10.5276437,14.8294123 10.3792077,14.8697543 10.1850962,14.9504395 C9.99098461,15.0311246 9.87680306,15.0714666 9.84254808,15.0714666 C9.8082931,15.0714666 9.72551147,15.0368878 9.59420072,14.967729 C9.46288997,14.8985703 9.39723558,14.8409389 9.39723558,14.7948331 C9.39723558,14.7602537 9.40865373,14.6565172 9.43149038,14.4836204 C9.45432704,14.3107236 9.48287242,14.0629085 9.5171274,13.7401678 C9.55138238,13.4174271 9.56850962,13.0658755 9.56850962,12.6855025 L9.56850962,5.63134766 C9.56850962,5.19334239 9.53425515,4.80144882 9.46574519,4.45565518 C9.40865356,4.27123191 9.11178153,4.17902166 8.57512019,4.17902166 L8.42097356,4.17902166 C8.3524636,4.17902166 8.31820913,4.08681141 8.31820913,3.90238814 C8.31820913,3.71796487 8.3524636,3.62575462 8.42097356,3.62575462 C8.77494167,3.59117525 9.11177725,3.54507013 9.43149038,3.48743786 C9.75120352,3.42980558 10.0166756,3.37217418 10.2279147,3.3145419 C10.4391537,3.25690963 10.6218442,3.19927822 10.7759916,3.14164595 C10.930139,3.08401368 11.0500296,3.04079012 11.1356671,3.01197399 L11.2641226,2.96875 L11.2983774,2.96875 C11.3440507,2.96875 11.3897233,3.00044727 11.4353966,3.06384277 C11.4810699,3.12723827 11.5096153,3.18775125 11.5210337,3.24538352 C11.3954321,3.69491524 11.3326322,4.23665048 11.3326322,4.87060547 L11.3326322,7.73203347 C11.3326322,7.74932315 11.3354868,7.77525728 11.3411959,7.80983665 C11.3469051,7.84441601 11.3583232,7.86170543 11.3754507,7.86170543 C11.3925782,7.86170543 11.41256,7.85594229 11.4353966,7.84441584 C11.5952532,7.72915129 11.8264708,7.61388848 12.1290565,7.49862393 C12.4316421,7.38335939 12.7199506,7.32572798 12.9939904,7.32572798 Z M12.6171875,8.25936612 C12.2403827,8.25936612 11.9320925,8.3688658 11.6923077,8.58786843 C11.4525228,8.80687106 11.3326322,9.0662124 11.3326322,9.36590021 L11.3326322,13.0312944 C11.3326322,13.4347203 11.4839228,13.7401668 11.7865084,13.9476429 C12.0890941,14.1551191 12.4459114,14.2588556 12.8569712,14.2588556 C13.4507241,14.2588556 13.8988867,13.987988 14.2014724,13.4462447 C14.504058,12.9045013 14.6553486,12.2475033 14.6553486,11.4752308 C14.6553486,10.4839557 14.4783672,9.7001686 14.124399,9.12384588 C13.7704309,8.54752316 13.2680321,8.25936612 12.6171875,8.25936612 Z" id="sb" fill="#FFFFFF" fill-rule="nonzero"></path>
        </g>
    </g>
</svg>